<svg width="239" height="173" viewBox="0 0 239 173" fill="none" xmlns="http://www.w3.org/2000/svg">
<path d="M95.3862 0.603998C94.0376 2.10251 91.7149 2.55206 89.0925 2.55206H59.347C56.6497 2.55206 54.4019 2.10251 53.0532 0.603998H52.6786V20.9838H53.1282C54.4768 11.2434 58.8974 4.94968 66.2402 4.94968H68.0384V46.8331C68.0384 51.928 66.2402 53.8761 60.5458 54.5504V55H87.8937V54.5504C82.1244 53.8761 80.4011 51.928 80.4011 46.8331V4.94968H82.1993C89.4671 4.94968 93.9626 11.2434 95.3113 20.9838H95.7608V0.603998H95.3862ZM148.064 3.00162V2.55206H125.437V3.00162C129.108 3.90072 130.607 5.77387 130.607 10.4193V27.2775H111.875V10.4193C111.875 5.77387 113.449 3.90072 117.045 3.00162V2.55206H94.4177V3.00162C98.0141 3.90072 99.5875 5.77387 99.5875 10.4193V47.1328C99.5875 51.7782 98.0141 53.6513 94.4177 54.5504V55H117.045V54.5504C113.449 53.6513 111.875 51.7782 111.875 47.1328V29.3754H130.607V47.1328C130.607 51.7782 129.108 53.6513 125.437 54.5504V55H148.064V54.5504C144.468 53.6513 142.895 51.7782 142.895 47.1328V10.4193C142.895 5.77387 144.468 3.90072 148.064 3.00162ZM188.588 34.6952C185.067 47.4325 180.421 53.1269 170.157 53.1269H165.511V29.0757H168.433C175.027 29.0757 178.249 33.1217 179.597 38.891H180.047V17.9118H179.597C178.249 23.4563 175.102 27.2026 168.433 27.2026H165.511V4.4252H170.157C179.073 4.4252 184.392 10.3443 187.09 20.3844H187.539L186.191 2.55206H148.053V3.00162C151.725 3.90072 153.223 5.32431 153.223 10.1945V46.908C153.223 52.2278 151.65 53.6513 148.053 54.5504V55H187.09L189.038 34.6952H188.588ZM27.6709 86.1017V85.802C37.3363 85.2026 43.2554 80.4823 43.2554 72.9148C43.2554 64.673 36.8868 60.5521 24.8237 60.5521H0.098286V61.0016C3.76964 61.9007 5.26815 63.3243 5.26815 68.1945V104.908C5.26815 110.228 3.69472 111.651 0.098286 112.55V113H24.8237C38.5351 113 45.8778 108.13 45.8778 99.1388C45.8778 90.6722 38.6101 86.0268 27.6709 86.1017ZM20.6279 62.4252C26.9966 62.4252 30.2933 66.2464 30.2933 73.664C30.2933 81.0068 27.5211 85.4274 20.6279 85.4274H17.556V62.4252H20.6279ZM22.1264 111.127H17.556V87.0757H21.3772C28.6449 87.0757 32.1665 90.8969 32.1665 99.2137C32.1665 106.706 28.3452 111.127 22.1264 111.127ZM44.9538 113H67.5813V112.55C63.9849 111.651 62.4114 109.179 62.4114 104.908V87.4504H65.2586C69.4545 87.4504 70.953 89.1737 73.1258 94.6432L77.0969 105.582C78.0709 108.205 79.1199 111.052 80.3936 113H97.102V112.476C94.4796 111.951 92.1569 110.078 90.5835 106.032L86.6124 95.842C84.2897 89.848 78.5954 86.5513 71.3276 86.7011V86.2516C80.3936 86.2516 88.1859 80.9318 88.1859 73.3643C88.1859 65.4972 82.6414 60.5521 68.2556 60.5521H44.9538V61.0016C48.6251 61.9007 50.1236 63.3243 50.1236 68.1945V104.908C50.1236 110.228 48.5502 111.651 44.9538 112.55V113ZM62.4114 85.802V62.3503H65.4085C72.5264 62.3503 74.6992 66.8458 74.6992 73.5891C74.6992 81.3814 71.7022 85.802 64.884 85.802H62.4114ZM118.835 114.499C134.944 114.499 146.033 103.185 146.033 86.776C146.033 70.3673 134.944 59.0536 118.835 59.0536C102.726 59.0536 91.7117 70.3673 91.7117 86.776C91.7117 103.185 102.726 114.499 118.835 114.499ZM118.835 111.876C109.919 111.876 105.498 103.859 105.498 86.776C105.498 69.6181 109.844 61.6759 118.835 61.6759C127.901 61.6759 132.172 69.6181 132.172 86.776C132.172 103.859 127.826 111.876 118.835 111.876ZM167.39 61.0016V60.5521H144.762V61.0016C148.433 61.9007 149.932 63.3243 149.932 68.1945V104.908C149.932 110.228 148.359 111.651 144.762 112.55V113H167.39V112.55C163.793 111.651 162.22 109.179 162.22 104.908V68.1945C162.22 64.1485 163.718 61.9007 167.39 61.0016ZM191.066 105.507L172.56 79.0587L182.749 69.0936C186.945 65.1225 190.167 62.2004 195.487 61.0016V60.5521H175.632V61.0016C180.127 61.4512 181.626 62.9497 181.626 65.1975C181.626 67.1455 180.277 68.644 177.505 71.3414L162.22 86.1766L180.726 113H199.158V112.55C196.011 111.876 194.588 110.453 191.066 105.507ZM237.908 92.6952C234.387 105.433 229.741 111.127 219.477 111.127H214.831V87.0757H217.753C224.347 87.0757 227.569 91.1217 228.917 96.891H229.367V75.9118H228.917C227.569 81.4563 224.422 85.2026 217.753 85.2026H214.831V62.4252H219.477C228.393 62.4252 233.713 68.3443 236.41 78.3844H236.859L235.511 60.5521H197.374V61.0016C201.045 61.9007 202.543 63.3243 202.543 68.1945V104.908C202.543 110.228 200.97 111.651 197.374 112.55V113H236.41L238.358 92.6952H237.908ZM63.2431 118.552V119.002C68.6378 120.2 70.1363 122.074 70.1363 127.243V149.496L43.3129 118.552H25.8552V119.002C28.4027 120.65 30.5006 122.748 32.4487 124.996V161.859C32.4487 167.628 30.8753 169.651 25.8552 170.55V171H41.7395V170.55C36.9442 169.501 34.9212 167.703 34.9212 161.859V127.918L72.0844 171.749H72.459V127.243C72.459 122.148 74.1073 119.826 78.528 119.002V118.552H63.2431ZM103.98 172.499C120.089 172.499 131.178 161.185 131.178 144.776C131.178 128.367 120.089 117.054 103.98 117.054C87.871 117.054 76.857 128.367 76.857 144.776C76.857 161.185 87.871 172.499 103.98 172.499ZM103.98 169.876C95.0639 169.876 90.6433 161.859 90.6433 144.776C90.6433 127.618 94.989 119.676 103.98 119.676C113.046 119.676 117.317 127.618 117.317 144.776C117.317 161.859 112.971 169.876 103.98 169.876ZM172.585 116.604C171.237 118.103 168.914 118.552 166.291 118.552H136.546C133.849 118.552 131.601 118.103 130.252 116.604H129.878V136.984H130.327C131.676 127.243 136.096 120.95 143.439 120.95H145.237V162.833C145.237 167.928 143.439 169.876 137.745 170.55V171H165.093V170.55C159.323 169.876 157.6 167.928 157.6 162.833V120.95H159.398C166.666 120.95 171.162 127.243 172.51 136.984H172.96V116.604H172.585ZM212.151 150.695C208.63 163.433 203.985 169.127 193.72 169.127H189.074V145.076H191.996C198.59 145.076 201.812 149.122 203.16 154.891H203.61V133.912H203.16C201.812 139.456 198.665 143.203 191.996 143.203H189.074V120.425H193.72C202.636 120.425 207.956 126.344 210.653 136.384H211.102L209.754 118.552H171.617V119.002C175.288 119.901 176.787 121.324 176.787 126.194V162.908C176.787 168.228 175.213 169.651 171.617 170.55V171H210.653L212.601 150.695H212.151Z" fill="#0E1726"/>
</svg>
