<svg width="393" height="283" viewBox="0 0 393 283" fill="none" xmlns="http://www.w3.org/2000/svg">
<path d="M70.4952 0.968189C68.2878 3.42085 64.4862 4.15665 60.194 4.15665H11.5086C7.0938 4.15665 3.4148 3.42085 1.2074 0.968189H0.594234V34.3245H1.33003C3.53743 18.3821 10.7728 8.08092 22.7909 8.08092H25.7341V76.633C25.7341 84.972 22.7909 88.1605 13.4707 89.2642V90H58.2319V89.2642C48.7891 88.1605 45.9686 84.972 45.9686 76.633V8.08092H48.9118C60.8072 8.08092 68.1652 18.3821 70.3726 34.3245H71.1084V0.968189H70.4952ZM156.715 4.89246V4.15665H119.68V4.89246C125.689 6.36405 128.142 9.42989 128.142 17.0332V44.6257H97.4835V17.0332C97.4835 9.42989 100.059 6.36405 105.945 4.89246V4.15665H68.91V4.89246C74.7964 6.36405 77.3717 9.42989 77.3717 17.0332V77.1235C77.3717 84.7268 74.7964 87.7926 68.91 89.2642V90H105.945V89.2642C100.059 87.7926 97.4835 84.7268 97.4835 77.1235V48.0594H128.142V77.1235C128.142 84.7268 125.689 87.7926 119.68 89.2642V90H156.715V89.2642C150.829 87.7926 148.254 84.7268 148.254 77.1235V17.0332C148.254 9.42989 150.829 6.36405 156.715 4.89246ZM223.042 56.7664C217.278 77.614 209.675 86.9342 192.874 86.9342H185.271V47.5689H190.054C200.846 47.5689 206.119 54.1911 208.326 63.6338H209.062V29.2965H208.326C206.119 38.3714 200.968 44.503 190.054 44.503H185.271V7.22249H192.874C207.468 7.22249 216.175 16.9105 220.59 33.3434H221.325L219.118 4.15665H156.698V4.89246C162.707 6.36405 165.159 8.69409 165.159 16.6653V76.7556C165.159 85.4626 162.584 87.7926 156.698 89.2642V90H220.59L223.778 56.7664H223.042ZM47.8081 140.975V140.484C63.6278 139.503 73.3158 131.777 73.3158 119.391C73.3158 105.901 62.892 99.1567 43.148 99.1567H2.679V99.8925C8.68803 101.364 11.1407 103.694 11.1407 111.665V171.756C11.1407 180.463 8.5654 182.793 2.679 184.264V185H43.148C65.5899 185 77.608 177.029 77.608 162.313C77.608 148.455 65.7125 140.852 47.8081 140.975ZM36.2805 102.222C46.7044 102.222 52.1002 108.477 52.1002 120.617C52.1002 132.636 47.5628 139.871 36.2805 139.871H31.2526V102.222H36.2805ZM38.7332 181.934H31.2526V142.569H37.5069C49.4023 142.569 55.1661 148.823 55.1661 162.435C55.1661 174.699 48.9118 181.934 38.7332 181.934ZM76.0955 185H113.131V184.264C107.244 182.793 104.669 178.746 104.669 171.756V143.182H109.329C116.197 143.182 118.649 146.003 122.206 154.955L128.705 172.859C130.299 177.151 132.016 181.812 134.101 185H161.448V184.142C157.156 183.283 153.355 180.217 150.779 173.595L144.28 156.917C140.478 147.106 131.158 141.71 119.262 141.956V141.22C134.101 141.22 146.855 132.513 146.855 120.127C146.855 107.25 137.78 99.1567 114.234 99.1567H76.0955V99.8925C82.1046 101.364 84.5572 103.694 84.5572 111.665V171.756C84.5572 180.463 81.9819 182.793 76.0955 184.264V185ZM104.669 140.484V102.1H109.574C121.225 102.1 124.781 109.458 124.781 120.495C124.781 133.249 119.876 140.484 108.716 140.484H104.669ZM197.019 187.453C223.385 187.453 241.535 168.935 241.535 142.078C241.535 115.222 223.385 96.704 197.019 96.704C170.653 96.704 152.626 115.222 152.626 142.078C152.626 168.935 170.653 187.453 197.019 187.453ZM197.019 183.16C182.426 183.16 175.19 170.039 175.19 142.078C175.19 113.995 182.303 100.996 197.019 100.996C211.858 100.996 218.848 113.995 218.848 142.078C218.848 170.039 211.735 183.16 197.019 183.16ZM276.491 99.8925V99.1567H239.455V99.8925C245.464 101.364 247.917 103.694 247.917 111.665V171.756C247.917 180.463 245.342 182.793 239.455 184.264V185H276.491V184.264C270.604 182.793 268.029 178.746 268.029 171.756V111.665C268.029 105.043 270.482 101.364 276.491 99.8925ZM315.243 172.737L284.952 129.447L301.63 113.137C308.498 106.637 313.771 101.855 322.478 99.8925V99.1567H289.98V99.8925C297.338 100.628 299.791 103.081 299.791 106.76C299.791 109.948 297.584 112.401 293.046 116.816L268.029 141.097L298.319 185H328.487V184.264C323.337 183.16 321.007 180.83 315.243 172.737ZM391.911 151.766C386.147 172.614 378.544 181.934 361.743 181.934H354.14V142.569H358.923C369.714 142.569 374.988 149.191 377.195 158.634H377.931V124.296H377.195C374.988 133.371 369.837 139.503 358.923 139.503H354.14V102.222H361.743C376.337 102.222 385.044 111.911 389.458 128.343H390.194L387.987 99.1567H325.566V99.8925C331.575 101.364 334.028 103.694 334.028 111.665V171.756C334.028 180.463 331.453 182.793 325.566 184.264V185H389.458L392.647 151.766H391.911ZM63.873 194.157V194.892C72.7026 196.855 75.1553 199.92 75.1553 208.382V244.804L31.2526 194.157H2.679V194.892C6.84853 197.59 10.2823 201.024 13.4707 204.703V265.039C13.4707 274.481 10.8954 277.793 2.679 279.264V280H28.6773V279.264C20.8287 277.547 17.5176 274.604 17.5176 265.039V209.486L78.3438 281.226H78.9569V208.382C78.9569 200.043 81.6549 196.241 88.8902 194.892V194.157H63.873ZM130.549 282.453C156.915 282.453 175.064 263.935 175.064 237.078C175.064 210.222 156.915 191.704 130.549 191.704C104.182 191.704 86.1553 210.222 86.1553 237.078C86.1553 263.935 104.182 282.453 130.549 282.453ZM130.549 278.16C115.955 278.16 108.72 265.039 108.72 237.078C108.72 208.995 115.833 195.996 130.549 195.996C145.387 195.996 152.377 208.995 152.377 237.078C152.377 265.039 145.265 278.16 130.549 278.16ZM242.837 190.968C240.63 193.421 236.828 194.157 232.536 194.157H183.85C179.436 194.157 175.757 193.421 173.549 190.968H172.936V224.324H173.672C175.879 208.382 183.115 198.081 195.133 198.081H198.076V266.633C198.076 274.972 195.133 278.16 185.812 279.264V280H230.574V279.264C221.131 278.16 218.31 274.972 218.31 266.633V198.081H221.254C233.149 198.081 240.507 208.382 242.714 224.324H243.45V190.968H242.837ZM307.596 246.766C301.833 267.614 294.229 276.934 277.429 276.934H269.825V237.569H274.608C285.4 237.569 290.673 244.191 292.88 253.634H293.616V219.296H292.88C290.673 228.371 285.522 234.503 274.608 234.503H269.825V197.222H277.429C292.022 197.222 300.729 206.911 305.144 223.343H305.879L303.672 194.157H241.252V194.892C247.261 196.364 249.713 198.694 249.713 206.665V266.756C249.713 275.463 247.138 277.793 241.252 279.264V280H305.144L308.332 246.766H307.596Z" fill="#0E1726"/>
</svg>
