<svg width="41" height="40" viewBox="0 0 41 40" fill="none" xmlns="http://www.w3.org/2000/svg">
<path fill-rule="evenodd" clip-rule="evenodd" d="M15.576 29.9999C24.8648 29.9999 29.9453 22.3047 29.9453 15.6314C29.9453 15.4128 29.9453 15.1953 29.9307 14.9787C30.919 14.2638 31.7722 13.3787 32.4503 12.3647C31.5286 12.7731 30.5508 13.041 29.5496 13.1592C30.6038 12.5281 31.393 11.5355 31.7699 10.366C30.7785 10.9543 29.6941 11.3688 28.5629 11.5918C26.6504 9.55821 23.4512 9.46005 21.4175 11.3725C20.1059 12.6059 19.5494 14.4438 19.9565 16.1975C15.8959 15.994 12.1126 14.0761 9.54819 10.9213C8.20774 13.2288 8.89243 16.1807 11.1118 17.6625C10.308 17.6387 9.5219 17.4219 8.81957 17.0305V17.0945C8.82026 19.4983 10.5148 21.5687 12.8713 22.0448C12.1278 22.2476 11.3477 22.2772 10.5909 22.1314C11.2525 24.1886 13.1485 25.5978 15.3092 25.6384C13.5208 27.0438 11.3116 27.8068 9.03717 27.8044C8.63535 27.8036 8.23393 27.7793 7.83496 27.7315C10.1445 29.2136 12.8318 29.9997 15.576 29.996" fill="#0E1726"/>
<circle cx="20.1425" cy="19.9999" r="19.4999" stroke="#0E1726"/>
</svg>
