<?xml version="1.0" encoding="UTF-8"?>
<svg width="433px" height="102px" viewBox="0 0 433 102" version="1.1" xmlns="http://www.w3.org/2000/svg" xmlns:xlink="http://www.w3.org/1999/xlink">
    <title>Kairos-Logo</title>
    <g id="061520_Desktop" stroke="none" stroke-width="1" fill="none" fill-rule="evenodd">
        <g id="Style-Guide" transform="translate(-40.000000, -110.000000)">
            <g id="Kairos-Logo" transform="translate(40.000000, 110.000000)">
                <path d="M416.694678,10.2809828 C419.825885,10.2809828 422.372092,12.8283103 422.372092,15.9595172 C422.372092,19.0907241 419.825885,21.6391724 416.694678,21.6391724 C413.563471,21.6391724 411.016144,19.0907241 411.016144,15.9595172 C411.016144,12.8283103 413.563471,10.2809828 416.694678,10.2809828 M416.694678,0.412189655 C408.107954,0.412189655 401.147351,7.3727931 401.147351,15.9595172 C401.147351,24.5462414 408.107954,31.5079655 416.694678,31.5079655 C425.281402,31.5079655 432.243126,24.5462414 432.243126,15.9595172 C432.243126,7.3727931 425.281402,0.412189655 416.694678,0.412189655" id="Degree" fill="#F15953"></path>
                <path d="M378.943653,59.2250367 C376.338626,57.6131268 373.504621,56.3516322 370.519383,55.4744991 C367.425514,54.5645147 364.514828,53.6501501 361.870396,52.7554963 C359.133307,51.8301812 356.828614,50.6924269 355.018089,49.3707046 C353.046746,47.9372875 352.045632,45.8523171 352.045632,43.1716409 C352.045632,41.4995035 352.465248,40.0474705 353.292764,38.8571539 C354.089396,37.7062591 355.142696,36.7678034 356.422844,36.0691631 C357.647611,35.3989941 358.971425,34.8985574 360.355944,34.5820887 C361.729814,34.2689051 363.080253,34.1101232 364.372116,34.1101232 C366.569242,34.1101232 368.930381,34.5623778 371.388436,35.4548415 C373.572781,36.250941 375.385437,37.4401625 376.793387,38.9984151 L387.378572,27.0985343 C384.340084,24.4649452 380.92032,22.5442319 377.202353,21.3823866 C373.197896,20.1329374 368.991087,19.5 364.701206,19.5 C360.991758,19.5 357.337692,20.0387634 353.839117,21.1020544 C350.366103,22.1587752 347.260519,23.7652099 344.607567,25.8742713 C341.968459,27.9723822 339.826714,30.6169218 338.238776,33.7323318 C336.660424,36.8335062 335.859533,40.5030103 335.859533,44.6390045 C335.859533,48.8910738 336.717935,52.3437585 338.410244,54.8995992 C340.128113,57.4959567 342.314589,59.6159686 344.908966,61.2037874 C347.555528,62.8189824 350.450239,64.1220889 353.514288,65.0725901 C356.660342,66.0504675 359.626409,67.0425805 362.329417,68.0182678 C365.103782,69.0213313 367.44788,70.2576398 369.296746,71.6943421 C371.293649,73.2438343 372.306479,75.382462 372.306479,78.0489025 C372.306479,79.6378164 371.909228,81.0460474 371.124312,82.235269 C370.362826,83.3872589 369.352127,84.3443304 368.120969,85.0802023 C366.918567,85.7974583 365.552153,86.3395068 364.056872,86.6943022 C359.524168,87.7674487 355.129915,87.1947389 351.017892,85.166711 C348.535342,83.944638 346.407442,82.2451244 344.677858,80.1075917 L333.666667,92.5539012 C337.138616,95.7185883 340.906639,98.0576097 344.88021,99.5107377 C349.090215,101.051469 353.726226,101.833333 358.66257,101.833333 C362.594606,101.833333 366.3818,101.312091 369.918715,100.283841 C373.426874,99.264352 376.548434,97.6798183 379.196061,95.571852 C381.830908,93.4770262 383.952418,90.7996351 385.502015,87.6141421 C387.048417,84.4319342 387.833333,80.6430699 387.833333,76.3559591 C387.833333,71.8728348 386.989841,68.2635584 385.326288,65.6299693 C383.644629,62.9646238 381.496494,60.8095704 378.943653,59.2250367" id="S" fill="#0E1726"></path>
                <path d="M310.907411,71.2826043 C309.705269,74.4998537 307.959482,77.3272662 305.717087,79.6870935 C303.464848,82.0567762 300.735689,83.9260222 297.6029,85.2400792 C294.475579,86.5563262 290.934783,87.2232101 287.083333,87.2232101 C283.228602,87.2232101 279.6889,86.5563262 276.561579,85.2400792 C273.422227,83.9227371 270.693068,82.0534911 268.448485,79.6870935 C266.200621,77.322886 264.453741,74.4954735 263.255974,71.2826043 C262.062583,68.0850657 261.456589,64.5130209 261.456589,60.6672142 C261.456589,56.8980608 262.061489,53.3457269 263.255974,50.1109567 C264.45046,46.8630459 266.198434,44.0148275 268.449579,41.6462398 C270.695256,39.2798423 273.424414,37.4116913 276.561579,36.0932542 C279.696557,34.7770071 283.236259,34.1101232 287.083333,34.1101232 C290.92822,34.1101232 294.467922,34.7770071 297.6029,36.0932542 C300.733502,37.4084062 303.463754,39.2765571 305.717087,41.6462398 C307.96167,44.0104473 309.707456,46.8586657 310.908505,50.1109567 C312.101896,53.349012 312.706796,56.9002509 312.706796,60.6672142 C312.706796,64.5097357 312.101896,68.0817805 310.907411,71.2826043 M317.410356,30.6169218 C313.677042,27.0634928 309.18022,24.2930227 304.047871,22.38326 C298.899113,20.470212 293.191398,19.5 287.083333,19.5 C280.973081,19.5 275.265366,20.470212 270.117702,22.38326 C264.986447,24.2908326 260.489625,27.0623978 256.754123,30.6169218 C253.021903,34.1725409 250.070693,38.5395902 247.984718,43.5976144 C245.893275,48.6633039 244.833333,54.4068279 244.833333,60.6672142 C244.833333,66.9276005 245.893275,72.6711244 247.984718,77.7357189 C250.071786,82.7970283 253.022997,87.1640776 256.754123,90.7164115 C260.489625,94.2731257 264.985353,97.0435957 270.117702,98.9511684 C275.263178,100.864216 280.970893,101.833333 287.083333,101.833333 C293.19468,101.833333 298.901301,100.864216 304.047871,98.9511684 C309.18022,97.0414057 313.677042,94.2720306 317.41145,90.7164115 C321.140388,87.1651726 324.091599,82.7981233 326.180854,77.7357189 C328.272298,72.6645542 329.333333,66.9221253 329.333333,60.6672142 C329.333333,54.4133981 328.272298,48.6698742 326.180854,43.5976144 C324.092693,38.5384951 321.141482,34.1714459 317.410356,30.6169218" id="O" fill="#0E1726"></path>
                <path d="M219.404242,53.911861 C217.842056,54.540418 216.075222,54.9223537 214.153026,55.0478469 C212.301547,55.1678838 210.520784,55.2289935 208.860024,55.2289935 L206.288524,55.2289935 L206.288524,34.271636 L210.036485,34.271636 C211.718674,34.271636 213.460864,34.3949467 215.212698,34.6382943 C217.017033,34.8892806 218.647793,35.3803408 220.058903,36.0972887 C221.508585,36.8371527 222.720404,37.9153026 223.661145,39.3044573 C224.614742,40.7230756 225.09797,42.614203 225.09797,44.9298246 C225.09797,47.4265928 224.546169,49.4126584 223.455425,50.8345505 C222.38611,52.2269789 221.023215,53.2614791 219.404242,53.911861 L219.404242,53.911861 Z M224.062941,66.0486863 C229.350587,65.0436498 233.419984,62.6330899 236.155416,58.8857551 C238.907992,55.1111391 240.30303,50.4504323 240.30303,45.0313103 C240.30303,40.537564 239.534795,36.7465794 238.019753,33.7652984 C236.506855,30.7938387 234.440012,28.3985562 231.880299,26.6449257 C229.289513,24.8760178 226.224072,23.5916226 222.769691,22.8288424 C219.275667,22.0584236 215.524492,21.6666667 211.621171,21.6666667 L190.666667,21.6666667 L190.666667,99.6666667 L206.288524,99.6666667 L206.288524,65.579451 L225.483695,99.6666667 L242.666667,99.6666667 L222.923981,66.2647528 L224.062941,66.0486863 Z" id="R" fill="#0E1726"></path>
                <polygon id="I" fill="#0E1726" points="164.666667 99.6666667 179.833333 99.6666667 179.833333 21.6666667 164.666667 21.6666667"></polygon>
                <path d="M106.724438,69.5828075 L117.467779,41.7818646 L128.338439,69.5828075 L106.724438,69.5828075 Z M111.332734,21.6666667 L78,99.6666667 L95.3466601,99.6666667 L101.907899,82.7946939 L133.586567,82.7946939 L140.372232,99.6666667 L158.166667,99.6666667 L124.617059,21.6666667 L111.332734,21.6666667 Z" id="A" fill="#0E1726"></path>
                <polygon id="K" fill="#0E1726" points="68.3999027 21.6666667 47.8129968 21.6666667 15.8427683 55.9895912 15.8427683 21.6666667 0 21.6666667 0 99.6666667 15.8427683 99.6666667 15.8427683 60.4778813 49.2907859 99.6666667 71.5 99.6666667 33.9152596 57.8370687"></polygon>
            </g>
        </g>
    </g>
</svg>