<svg width="20" height="24" viewBox="0 0 20 24" fill="none" xmlns="http://www.w3.org/2000/svg">
<g clip-path="url(#clip0)">
<path fill-rule="evenodd" clip-rule="evenodd" d="M12.5709 16.7329C12.2554 16.7329 12 16.4818 12 16.1675V12.7784C12 10.4095 10.3614 8.41886 8.14286 7.85482V7.27129C8.14286 6.56743 7.56714 6 6.85714 6C6.14829 6 5.57143 6.56913 5.57143 7.27129V7.85482C3.35314 8.41886 1.71429 10.4087 1.71429 12.7784V16.1675C1.71429 16.4798 1.45771 16.7329 1.14343 16.7329C0.512 16.7329 0 17.2399 0 17.8627C0 18.4866 0.512571 18.9925 1.14571 18.9925H12.5686C13.2014 18.9925 13.7143 18.4855 13.7143 17.8627C13.7143 17.2388 13.2 16.7329 12.5709 16.7329Z" fill="#0E1726"/>
<path fill-rule="evenodd" clip-rule="evenodd" d="M9.47567 20.4355C9.49854 20.5739 9.51044 20.716 9.51044 20.8609C9.51044 22.2912 8.35083 23.4508 6.92053 23.4508C5.49024 23.4508 4.33081 22.2912 4.33081 20.8609C4.33081 20.716 4.34271 20.5739 4.36558 20.4355L6.07593 20.4353C6.01117 20.5633 5.97466 20.7079 5.97466 20.8609C5.97466 21.3825 6.39897 21.807 6.92053 21.807C7.4421 21.807 7.86622 21.3825 7.86622 20.8609C7.86622 20.7079 7.82973 20.5633 7.76499 20.4353L9.47567 20.4355Z" fill="#0E1726"/>
<path d="M15.4285 8.57143C17.7955 8.57143 19.7143 6.65265 19.7143 4.28571C19.7143 1.91878 17.7955 0 15.4285 0C13.0616 0 11.1428 1.91878 11.1428 4.28571C11.1428 6.65265 13.0616 8.57143 15.4285 8.57143Z" fill="#F15953"/>
</g>
<defs>
<clipPath id="clip0">
<rect width="19.7143" height="24" fill="white"/>
</clipPath>
</defs>
</svg>
