<?xml version="1.0" encoding="UTF-8"?>
<svg width="20px" height="20px" viewBox="0 0 20 20" version="1.1" xmlns="http://www.w3.org/2000/svg" xmlns:xlink="http://www.w3.org/1999/xlink">
    <title>FB</title>
    <g id="061520_Desktop" stroke="none" stroke-width="1" fill="none" fill-rule="evenodd">
        <g id="1.2-Menu" transform="translate(-1283.000000, -745.000000)" fill="#F7F7F7">
            <path d="M1301.13976,745 L1284.0592,745 C1283.47408,745 1282.9996,745.47448 1282.9996,746.05984 L1282.9996,763.14016 C1282.9996,763.72552 1283.47384,764.2 1284.0592,764.2 L1293.25576,764.2 L1293.25576,756.77512 L1290.76192,756.77512 L1290.76192,753.86872 L1293.25576,753.86872 L1293.25576,751.73008 C1293.25576,749.25016 1294.77016,747.89968 1296.98248,747.89968 C1298.04208,747.89968 1298.95288,747.97864 1299.21832,748.01392 L1299.21832,750.60544 L1297.69264,750.60616 C1296.4888,750.60616 1296.25576,751.17832 1296.25576,752.0176 L1296.25576,753.86872 L1299.1336,753.86872 L1298.75896,756.77512 L1296.25576,756.77512 L1296.25576,764.2 L1301.13976,764.2 C1301.72512,764.2 1302.1996,763.72552 1302.1996,763.1404 L1302.1996,746.05984 C1302.1996,745.47448 1301.72488,745 1301.13976,745" id="FB"></path>
        </g>
    </g>
</svg>