<?xml version="1.0" encoding="UTF-8"?>
<svg width="16px" height="16px" viewBox="0 0 16 16" version="1.1" xmlns="http://www.w3.org/2000/svg" xmlns:xlink="http://www.w3.org/1999/xlink">
    <title>IG</title>
    <g id="061520_Desktop" stroke="none" stroke-width="1" fill="none" fill-rule="evenodd">
        <g id="1.0-Home" transform="translate(-635.000000, -3471.000000)" fill="#0E1726">
            <g id="Group-3" style="mix-blend-mode: multiply;" transform="translate(0.000000, -3.000000)">
                <g id="Background">
                    <g id="Group-2" transform="translate(40.000000, 2207.000000)">
                        <g id="Group" transform="translate(0.000000, 761.000000)">
                            <g id="Learn-More-Button" transform="translate(556.000000, 487.000000)">
                                <g id="Group-4" transform="translate(39.000000, 18.000000)">
                                    <g id="IG" transform="translate(0.000000, 1.000000)">
                                        <path d="M7.6646592,0.1920384 C5.5829952,0.1920384 5.3220672,0.2008704 4.5045312,0.2381184 C3.6887232,0.2753664 3.1317312,0.4047744 2.6440512,0.5944704 C2.1400512,0.7903104 1.7124672,1.0521984 1.2864192,1.4784384 C0.8603712,1.9044864 0.5982912,2.3320704 0.4024512,2.8360704 C0.2127552,3.3237504 0.0833472,3.8807424 0.0460992,4.6965504 C0.0088512,5.5140864 1.92000001e-05,5.7750144 1.92000001e-05,7.8566784 C1.92000001e-05,9.9383424 0.0088512,10.1992704 0.0460992,11.0169984 C0.0833472,11.8328064 0.2127552,12.3897984 0.4024512,12.8772864 C0.5982912,13.3814784 0.8603712,13.8088704 1.2864192,14.2351104 C1.7124672,14.6611584 2.1400512,14.9232384 2.6440512,15.1190784 C3.1317312,15.3083904 3.6887232,15.4381824 4.5045312,15.4754304 C5.3220672,15.5126784 5.5829952,15.5215104 7.6646592,15.5215104 C9.7463232,15.5215104 10.0072512,15.5126784 10.8249792,15.4754304 C11.6407872,15.4381824 12.1977792,15.3083904 12.6852672,15.1190784 C13.1894592,14.9232384 13.6168512,14.6611584 14.0430912,14.2351104 C14.4691392,13.8088704 14.7312192,13.3814784 14.9270592,12.8772864 C15.1165632,12.3897984 15.2461632,11.8328064 15.2834112,11.0169984 C15.3206592,10.1992704 15.3294912,9.9383424 15.3294912,7.8566784 C15.3294912,5.7750144 15.3206592,5.5140864 15.2834112,4.6965504 C15.2461632,3.8807424 15.1165632,3.3237504 14.9270592,2.8360704 C14.7312192,2.3320704 14.4691392,1.9044864 14.0430912,1.4784384 C13.6168512,1.0521984 13.1894592,0.7903104 12.6852672,0.5944704 C12.1977792,0.4047744 11.6407872,0.2753664 10.8249792,0.2381184 C10.0072512,0.2008704 9.7463232,0.1920384 7.6646592,0.1920384 M7.6646592,1.5729024 C9.7111872,1.5729024 9.9536832,1.5807744 10.7620032,1.6178304 C11.5090752,1.6518144 11.9151552,1.7766144 12.1851072,1.8816384 C12.5429952,2.0206464 12.7981632,2.1869184 13.0665792,2.4549504 C13.3346112,2.7231744 13.5006912,2.9785344 13.6398912,3.3362304 C13.7447232,3.6063744 13.8695232,4.0120704 13.9036992,4.7595264 C13.9407552,5.5676544 13.9484352,5.8101504 13.9484352,7.8566784 C13.9484352,9.9032064 13.9407552,10.1457024 13.9036992,10.9540224 C13.8695232,11.7010944 13.7447232,12.1071744 13.6398912,12.3771264 C13.5006912,12.7350144 13.3346112,12.9901824 13.0665792,13.2585984 C12.7981632,13.5266304 12.5429952,13.6927104 12.1851072,13.8319104 C11.9151552,13.9367424 11.5090752,14.0615424 10.7620032,14.0957184 C9.9538752,14.1325824 9.7113792,14.1402624 7.6646592,14.1402624 C5.6181312,14.1402624 5.3756352,14.1325824 4.5675072,14.0957184 C3.8202432,14.0615424 3.4143552,13.9367424 3.1442112,13.8319104 C2.7865152,13.6927104 2.5311552,13.5266304 2.2629312,13.2585984 C1.9948992,12.9901824 1.8286272,12.7350144 1.6896192,12.3771264 C1.5845952,12.1071744 1.4597952,11.7010944 1.4258112,10.9540224 C1.3887552,10.1457024 1.3808832,9.9032064 1.3808832,7.8566784 C1.3808832,5.8101504 1.3887552,5.5676544 1.4258112,4.7595264 C1.4597952,4.0120704 1.5845952,3.6063744 1.6896192,3.3362304 C1.8286272,2.9785344 1.9948992,2.7231744 2.2629312,2.4549504 C2.5311552,2.1869184 2.7865152,2.0206464 3.1442112,1.8816384 C3.4143552,1.7766144 3.8202432,1.6518144 4.5675072,1.6178304 C5.3756352,1.5807744 5.6181312,1.5729024 7.6646592,1.5729024" id="Square"></path>
                                        <path d="M7.6646592,10.4117184 C6.2536512,10.4117184 5.1097152,9.2677824 5.1097152,7.8565824 C5.1097152,6.4457664 6.2536512,5.3018304 7.6646592,5.3018304 C9.0758592,5.3018304 10.2197952,6.4457664 10.2197952,7.8565824 C10.2197952,9.2677824 9.0758592,10.4117184 7.6646592,10.4117184 M7.6646592,3.9207744 C5.4910272,3.9207744 3.7288512,5.6829504 3.7288512,7.8565824 C3.7288512,10.0305984 5.4910272,11.7925824 7.6646592,11.7925824 C9.8384832,11.7925824 11.6006592,10.0305984 11.6006592,7.8565824 C11.6006592,5.6829504 9.8384832,3.9207744 7.6646592,3.9207744" id="Circle"></path>
                                        <path d="M12.6759744,3.765216 C12.6759744,4.273248 12.2641344,4.685088 11.7561024,4.685088 C11.2480704,4.685088 10.8364224,4.273248 10.8364224,3.765216 C10.8364224,3.257184 11.2480704,2.845536 11.7561024,2.845536 C12.2641344,2.845536 12.6759744,3.257184 12.6759744,3.765216" id="Dot"></path>
                                    </g>
                                </g>
                            </g>
                        </g>
                    </g>
                </g>
            </g>
        </g>
    </g>
</svg>