<?xml version="1.0" encoding="UTF-8"?>
<svg width="20px" height="20px" viewBox="0 0 20 20" version="1.1" xmlns="http://www.w3.org/2000/svg" xmlns:xlink="http://www.w3.org/1999/xlink">
    <title>IG</title>
    <g id="061520_Desktop" stroke="none" stroke-width="1" fill="none" fill-rule="evenodd">
        <g id="1.2-Menu" transform="translate(-1315.000000, -745.000000)" fill="#F7F7F7">
            <g id="IG" transform="translate(1314.999600, 745.000000)">
                <path d="M9.580824,0.240048 C6.978744,0.240048 6.652584,0.251088 5.630664,0.297648 C4.610904,0.344208 3.914664,0.505968 3.305064,0.743088 C2.675064,0.987888 2.140584,1.315248 1.608024,1.848048 C1.075464,2.380608 0.747864,2.915088 0.503064,3.545088 C0.265944,4.154688 0.104184,4.850928 0.057624,5.870688 C0.011064,6.892608 2.40000001e-05,7.218768 2.40000001e-05,9.820848 C2.40000001e-05,12.422928 0.011064,12.749088 0.057624,13.771248 C0.104184,14.791008 0.265944,15.487248 0.503064,16.096608 C0.747864,16.726848 1.075464,17.261088 1.608024,17.793888 C2.140584,18.326448 2.675064,18.654048 3.305064,18.898848 C3.914664,19.135488 4.610904,19.297728 5.630664,19.344288 C6.652584,19.390848 6.978744,19.401888 9.580824,19.401888 C12.182904,19.401888 12.509064,19.390848 13.531224,19.344288 C14.550984,19.297728 15.247224,19.135488 15.856584,18.898848 C16.486824,18.654048 17.021064,18.326448 17.553864,17.793888 C18.086424,17.261088 18.414024,16.726848 18.658824,16.096608 C18.895704,15.487248 19.057704,14.791008 19.104264,13.771248 C19.150824,12.749088 19.161864,12.422928 19.161864,9.820848 C19.161864,7.218768 19.150824,6.892608 19.104264,5.870688 C19.057704,4.850928 18.895704,4.154688 18.658824,3.545088 C18.414024,2.915088 18.086424,2.380608 17.553864,1.848048 C17.021064,1.315248 16.486824,0.987888 15.856584,0.743088 C15.247224,0.505968 14.550984,0.344208 13.531224,0.297648 C12.509064,0.251088 12.182904,0.240048 9.580824,0.240048 M9.580824,1.966128 C12.138984,1.966128 12.442104,1.975968 13.452504,2.022288 C14.386344,2.064768 14.893944,2.220768 15.231384,2.352048 C15.678744,2.525808 15.997704,2.733648 16.333224,3.068688 C16.668264,3.403968 16.875864,3.723168 17.049864,4.170288 C17.180904,4.507968 17.336904,5.015088 17.379624,5.949408 C17.425944,6.959568 17.435544,7.262688 17.435544,9.820848 C17.435544,12.379008 17.425944,12.682128 17.379624,13.692528 C17.336904,14.626368 17.180904,15.133968 17.049864,15.471408 C16.875864,15.918768 16.668264,16.237728 16.333224,16.573248 C15.997704,16.908288 15.678744,17.115888 15.231384,17.289888 C14.893944,17.420928 14.386344,17.576928 13.452504,17.619648 C12.442344,17.665728 12.139224,17.675328 9.580824,17.675328 C7.022664,17.675328 6.719544,17.665728 5.709384,17.619648 C4.775304,17.576928 4.267944,17.420928 3.930264,17.289888 C3.483144,17.115888 3.163944,16.908288 2.828664,16.573248 C2.493624,16.237728 2.285784,15.918768 2.112024,15.471408 C1.980744,15.133968 1.824744,14.626368 1.782264,13.692528 C1.735944,12.682128 1.726104,12.379008 1.726104,9.820848 C1.726104,7.262688 1.735944,6.959568 1.782264,5.949408 C1.824744,5.015088 1.980744,4.507968 2.112024,4.170288 C2.285784,3.723168 2.493624,3.403968 2.828664,3.068688 C3.163944,2.733648 3.483144,2.525808 3.930264,2.352048 C4.267944,2.220768 4.775304,2.064768 5.709384,2.022288 C6.719544,1.975968 7.022664,1.966128 9.580824,1.966128" id="Square"></path>
                <path d="M9.580824,13.014648 C7.817064,13.014648 6.387144,11.584728 6.387144,9.820728 C6.387144,8.057208 7.817064,6.627288 9.580824,6.627288 C11.344824,6.627288 12.774744,8.057208 12.774744,9.820728 C12.774744,11.584728 11.344824,13.014648 9.580824,13.014648 M9.580824,4.900968 C6.863784,4.900968 4.661064,7.103688 4.661064,9.820728 C4.661064,12.538248 6.863784,14.740728 9.580824,14.740728 C12.298104,14.740728 14.500824,12.538248 14.500824,9.820728 C14.500824,7.103688 12.298104,4.900968 9.580824,4.900968" id="Circle"></path>
                <path d="M15.844968,4.70652 C15.844968,5.34156 15.330168,5.85636 14.695128,5.85636 C14.060088,5.85636 13.545528,5.34156 13.545528,4.70652 C13.545528,4.07148 14.060088,3.55692 14.695128,3.55692 C15.330168,3.55692 15.844968,4.07148 15.844968,4.70652" id="Dot"></path>
            </g>
        </g>
    </g>
</svg>