<?xml version="1.0" encoding="UTF-8"?>
<svg width="20px" height="20px" viewBox="0 0 20 20" version="1.1" xmlns="http://www.w3.org/2000/svg" xmlns:xlink="http://www.w3.org/1999/xlink">
    <title>LI</title>
    <g id="061520_Desktop" stroke="none" stroke-width="1" fill="none" fill-rule="evenodd">
        <g id="1.2-Menu" transform="translate(-1379.000000, -745.000000)" fill="#F7F7F7">
            <path d="M1395.97387,761.072272 L1393.09243,761.072272 L1393.09243,756.434032 C1393.09243,755.268832 1392.67555,754.473472 1391.63251,754.473472 C1390.83667,754.473472 1390.36243,755.009632 1390.15411,755.527552 C1390.07803,755.712592 1390.05907,755.971552 1390.05907,756.230512 L1390.05907,761.072272 L1387.17739,761.072272 C1387.17739,761.072272 1387.21531,753.215872 1387.17739,752.402512 L1390.05907,752.402512 L1390.05907,753.630832 C1390.44187,753.039952 1391.12635,752.198992 1392.65635,752.198992 C1394.55235,752.198992 1395.97387,753.438112 1395.97387,756.101152 L1395.97387,761.072272 Z M1384.14211,751.219072 L1384.12339,751.219072 C1383.15643,751.219072 1382.53099,750.552832 1382.53099,749.720752 C1382.53099,748.870432 1383.17539,748.222912 1384.16131,748.222912 C1385.14699,748.222912 1385.75371,748.870432 1385.77243,749.720752 C1385.77243,750.552832 1385.14699,751.219072 1384.14211,751.219072 L1384.14211,751.219072 Z M1382.70139,761.072272 L1385.58283,761.072272 L1385.58283,752.402512 L1382.70139,752.402512 L1382.70139,761.072272 Z M1397.46859,744.999952 L1381.20931,744.999952 C1380.43075,744.999952 1379.79955,745.615792 1379.79955,746.375632 L1379.79955,762.824512 C1379.79955,763.584112 1380.43075,764.199952 1381.20931,764.199952 L1397.46859,764.199952 C1398.24739,764.199952 1398.87859,763.584112 1398.87859,762.824512 L1398.87859,746.375632 C1398.87859,745.615792 1398.24739,744.999952 1397.46859,744.999952 L1397.46859,744.999952 Z" id="LI"></path>
        </g>
    </g>
</svg>