<?xml version="1.0" encoding="UTF-8"?>
<svg width="23px" height="20px" viewBox="0 0 23 20" version="1.1" xmlns="http://www.w3.org/2000/svg" xmlns:xlink="http://www.w3.org/1999/xlink">
    <title>TW</title>
    <g id="061520_Desktop" stroke="none" stroke-width="1" fill="none" fill-rule="evenodd">
        <g id="1.2-Menu" transform="translate(-1346.000000, -745.000000)" fill="#F7F7F7">
            <path d="M1368.5996,747.985659 C1367.775,748.355017 1366.89048,748.605219 1365.96088,748.7173 C1366.9098,748.142742 1367.6378,747.231375 1367.9808,746.14764 C1367.0932,746.679743 1366.109,747.0658 1365.06208,747.275245 C1364.22348,746.372652 1363.02928,745.808 1361.70796,745.808 C1359.16976,745.808 1357.11204,747.888012 1357.11204,750.452295 C1357.11204,750.81571 1357.15264,751.170916 1357.23076,751.510557 C1353.41184,751.316962 1350.02552,749.467056 1347.7592,746.6571 C1347.363,747.343173 1347.1376,748.141327 1347.1376,748.991842 C1347.1376,750.603435 1347.9482,752.025677 1349.18132,752.857795 C1348.42952,752.835153 1347.7214,752.627123 1347.1012,752.278992 L1347.1012,752.337014 C1347.1012,754.586846 1348.68572,756.464773 1350.78712,756.892153 C1350.40072,756.998291 1349.99472,757.054897 1349.57612,757.054897 C1349.2796,757.054897 1348.9926,757.025179 1348.71092,756.971403 C1349.29612,758.81678 1350.99292,760.159774 1353.00304,760.1977 C1351.43112,761.443047 1349.44872,762.18601 1347.2958,762.18601 C1346.9248,762.18601 1346.5594,762.163367 1346.1996,762.120629 C1348.2352,763.438432 1350.64992,764.208 1353.24552,764.208 C1361.69816,764.208 1366.3204,757.129901 1366.3204,750.99119 C1366.3204,750.790237 1366.31648,750.589283 1366.30668,750.389744 C1367.2038,749.73622 1367.9836,748.918254 1368.5996,747.985659" id="TW"></path>
        </g>
    </g>
</svg>