<?xml version="1.0" encoding="UTF-8"?>
<svg width="39px" height="39px" viewBox="0 0 39 39" version="1.1" xmlns="http://www.w3.org/2000/svg" xmlns:xlink="http://www.w3.org/1999/xlink">
    <title>Group 10</title>
    <g id="061520_Desktop" stroke="none" stroke-width="1" fill="none" fill-rule="evenodd">
        <g id="1.0-Home" transform="translate(-576.000000, -4745.000000)">
            <g id="Footer" transform="translate(19.000000, 4421.000000)">
                <g id="Social-Icons" transform="translate(557.000000, 324.000000)">
                    <g id="Group-10" transform="translate(0.000000, 0.000000)">
                        <path d="M15.04752,29.25 C24.10416,29.25 29.057664,21.747113 29.057664,15.2406433 C29.057664,15.0275367 29.057664,14.8153901 29.04336,14.6042034 C30.007008,13.9071913 30.838848,13.0442057 31.5,12.0555641 C30.601344,12.453747 29.647968,12.7149465 28.67184,12.8302352 C29.699712,12.214914 30.469152,11.247103 30.83664,10.1068869 C29.870016,10.6804508 28.812672,11.0845853 27.709824,11.3020116 C25.84512,9.31925658 22.725888,9.22355062 20.743008,11.0882331 C19.464192,12.2907492 18.9216,14.0827643 19.31856,15.7926085 C15.359424,15.594189 11.67072,13.7242269 9.1704,10.6482928 C7.863456,12.8981029 8.53104,15.7761935 10.69488,17.2209984 C9.911232,17.1977679 9.144768,16.9863892 8.46,16.6047173 L8.46,16.6671133 C8.460672,19.0109015 10.112832,21.0295583 12.4104,21.493689 C11.685504,21.6914365 10.924896,21.7203307 10.18704,21.5781637 C10.832064,23.5839572 12.680736,24.9579186 14.78736,24.9974681 C13.043712,26.3677817 10.88976,27.1116388 8.67216,27.109335 C8.280384,27.108567 7.888992,27.0848565 7.5,27.0382994 C9.751776,28.4832963 12.371904,29.249712 15.04752,29.2461602" id="Fill-1" fill="#000000"></path>
                        <circle id="Oval-Copy" stroke="#000000" cx="19.5" cy="19.5" r="19"></circle>
                    </g>
                </g>
            </g>
        </g>
    </g>
</svg>